<?xml version="1.0" standalone="no"?>
<!DOCTYPE svg PUBLIC "-//W3C//DTD SVG 20010904//EN"
 "http://www.w3.org/TR/2001/REC-SVG-20010904/DTD/svg10.dtd">
<svg version="1.0" xmlns="http://www.w3.org/2000/svg"
 width="980.000000pt" height="980.000000pt" viewBox="0 0 980.000000 980.000000"
 preserveAspectRatio="xMidYMid meet">
<metadata>
Created by potrace 1.11, written by Peter Selinger 2001-2013
</metadata>
<g transform="translate(0.000000,980.000000) scale(0.100000,-0.100000)"
fill="#000000" stroke="none">
<path d="M3640 8179 c-477 -23 -820 -62 -953 -108 -145 -50 -338 -203 -617
-487 -196 -200 -300 -317 -480 -544 -126 -158 -189 -230 -201 -230 -4 0 -10
19 -14 43 -12 81 -38 140 -78 185 -52 55 -104 82 -161 82 -67 0 -337 -36 -482
-65 -171 -33 -224 -60 -307 -153 -30 -34 -37 -50 -37 -84 0 -57 33 -121 95
-182 69 -67 120 -91 355 -166 107 -34 235 -75 283 -92 86 -30 105 -50 56 -56
-64 -9 -328 -153 -455 -248 -96 -72 -254 -239 -336 -354 -121 -171 -229 -407
-273 -599 -33 -140 -37 -327 -33 -1397 l5 -1051 42 -78 c62 -115 184 -261 232
-277 10 -3 15 -47 21 -179 13 -255 33 -316 136 -415 60 -58 130 -91 217 -104
92 -13 442 -13 525 0 92 15 179 60 235 122 86 96 115 188 115 371 l0 107 3370
0 c1854 0 3370 -1 3370 -2 0 -2 5 -70 10 -151 12 -201 23 -232 119 -328 42
-41 94 -84 116 -94 53 -24 158 -34 390 -34 293 -1 361 16 465 115 97 93 129
185 131 378 1 56 4 124 7 153 6 46 12 55 48 81 54 39 152 162 203 256 l42 76
-4 1187 c-4 1306 -1 1230 -67 1418 -117 330 -361 659 -615 831 -117 79 -296
179 -360 200 -97 33 -95 30 -45 51 25 11 149 53 275 92 272 86 357 124 424
190 108 109 116 191 30 285 -29 31 -73 66 -102 80 -60 29 -240 67 -458 96
-242 32 -282 27 -356 -47 -48 -48 -71 -96 -85 -176 -7 -34 -13 -64 -15 -66 -7
-9 -60 50 -225 247 -377 451 -720 799 -914 928 -151 101 -300 136 -714 169
-373 29 -2475 47 -2930 24z m2390 -309 c547 -14 867 -42 982 -87 80 -31 153
-87 288 -223 196 -196 513 -561 781 -900 119 -150 159 -204 159 -214 0 -11
-87 -6 -263 14 -322 36 -929 82 -1332 100 -355 16 -2309 24 -2960 11 -712 -13
-1311 -50 -1904 -117 -123 -14 -225 -23 -227 -21 -6 6 162 227 381 502 384
480 728 815 881 858 108 30 375 57 754 76 228 12 2001 12 2460 1z m60 -1639
c148 -76 218 -161 421 -516 148 -260 172 -315 167 -383 -8 -89 -35 -99 -311
-112 -242 -12 -2685 -12 -2948 -1 -369 16 -376 55 -95 546 172 299 216 357
336 436 61 40 131 59 258 69 59 5 553 7 1097 6 l990 -3 85 -42z m-5195 -1027
c170 -41 445 -110 610 -154 584 -154 595 -158 749 -282 137 -110 208 -221 191
-299 -8 -36 -54 -75 -106 -89 -43 -12 -371 -5 -1304 26 l-480 16 -55 30 c-106
59 -148 103 -171 180 -19 60 -28 249 -19 376 7 104 12 129 34 166 40 68 138
120 206 109 19 -3 174 -39 345 -79z m8482 52 c103 -49 128 -132 121 -409 -4
-147 -8 -180 -27 -229 -25 -64 -77 -117 -161 -165 l-55 -31 -490 -16 c-777
-26 -1247 -36 -1285 -27 -110 25 -146 99 -98 200 30 64 177 208 266 260 82 49
163 76 587 192 254 70 876 229 945 242 71 13 146 6 197 -17z m-2759 -1552
c169 -6 185 -8 203 -27 10 -11 19 -27 19 -34 0 -41 -269 -592 -353 -721 -39
-60 -56 -77 -95 -95 l-47 -22 -1374 -3 c-1387 -3 -1527 0 -1577 33 -44 29 -92
108 -218 355 -212 419 -230 471 -173 502 39 21 3015 31 3615 12z m-4174 -1
c61 -5 88 -12 129 -37 62 -37 99 -97 271 -436 141 -279 170 -349 156 -384 -15
-42 -63 -47 -363 -44 -253 3 -275 5 -318 24 -87 40 -139 109 -353 462 -185
307 -226 403 -178 415 27 7 571 8 656 0z m5570 1 c9 -4 21 -15 27 -26 12 -23
-33 -111 -199 -388 -216 -359 -285 -445 -385 -475 -61 -18 -538 -22 -600 -4
-60 16 -66 44 -32 131 38 96 238 490 306 603 64 106 113 146 192 156 69 8 671
11 691 3z"/>
<path d="M4802 6119 c-166 -25 -299 -121 -278 -201 3 -13 23 -47 46 -77 22
-29 40 -56 40 -60 0 -4 -11 -13 -24 -19 -39 -17 -95 -72 -122 -117 -24 -42
-24 -44 -8 -84 30 -75 133 -147 247 -173 71 -17 337 -16 407 1 136 33 250 129
250 208 0 39 -61 118 -118 153 -23 14 -42 29 -42 34 0 4 13 25 29 45 57 73 65
113 32 168 -55 88 -280 149 -459 122z m238 -131 c67 -46 63 -75 -15 -109 -88
-38 -198 -32 -267 14 -39 27 -46 51 -22 78 25 28 67 37 175 38 84 1 100 -2
129 -21z m21 -305 c91 -41 89 -86 -9 -131 -49 -23 -70 -27 -152 -27 -82 0
-103 4 -152 27 -81 37 -90 84 -24 121 72 39 257 45 337 10z"/>
</g>
</svg>
