<?xml version="1.0" standalone="no"?>
<!DOCTYPE svg PUBLIC "-//W3C//DTD SVG 20010904//EN"
 "http://www.w3.org/TR/2001/REC-SVG-20010904/DTD/svg10.dtd">
<svg version="1.0" xmlns="http://www.w3.org/2000/svg"
 width="980.000000pt" height="980.000000pt" viewBox="0 0 980.000000 980.000000"
 preserveAspectRatio="xMidYMid meet">
<metadata>
Created by potrace 1.11, written by Peter Selinger 2001-2013
</metadata>
<g transform="translate(0.000000,980.000000) scale(0.100000,-0.100000)"
fill="#000000" stroke="none">
<path d="M3779 8189 c-639 -23 -1024 -71 -1169 -144 -231 -117 -662 -541
-1062 -1045 -63 -80 -125 -153 -136 -164 -24 -21 -26 -19 -37 49 -15 90 -68
170 -143 217 -26 16 -48 20 -110 19 -138 -2 -475 -53 -604 -91 -54 -16 -79
-31 -129 -78 -34 -31 -68 -72 -76 -90 -26 -63 7 -154 84 -228 81 -79 124 -98
471 -205 89 -27 184 -59 210 -70 l47 -21 -60 -22 c-81 -29 -261 -125 -364
-193 -269 -179 -521 -524 -635 -868 -64 -194 -60 -106 -63 -1404 l-4 -1183 46
-82 c54 -96 151 -216 205 -254 45 -32 50 -55 50 -226 0 -121 18 -222 48 -282
27 -53 117 -141 172 -169 81 -41 149 -49 405 -49 268 0 331 10 417 65 113 73
173 179 188 335 5 54 10 125 10 157 l0 57 3365 0 3365 0 0 -67 c1 -38 5 -112
9 -166 12 -125 38 -182 125 -266 101 -96 123 -103 366 -112 272 -9 422 1 495
35 64 29 147 103 182 163 39 67 53 136 59 293 7 198 7 200 54 233 52 37 160
173 205 258 l35 67 0 1153 c0 709 -4 1188 -10 1242 -32 273 -221 631 -474 895
-124 130 -428 323 -586 372 l-55 18 40 16 c21 9 98 35 170 57 381 118 450 148
528 225 27 26 57 64 68 85 22 45 25 119 5 158 -19 36 -94 105 -143 129 -99 51
-643 135 -723 112 -50 -14 -106 -57 -139 -107 -26 -38 -36 -69 -57 -172 l-5
-24 -30 29 c-17 16 -79 87 -137 158 -382 464 -757 848 -961 984 -104 70 -171
97 -301 122 -266 52 -575 68 -1585 80 -892 11 -1314 11 -1626 -1z m1986 -319
c687 -12 1024 -33 1189 -75 146 -38 264 -138 586 -501 222 -249 570 -671 668
-808 l33 -46 -28 0 c-15 0 -80 7 -143 14 -405 51 -1132 102 -1635 116 -436 12
-2638 12 -3070 0 -501 -14 -1358 -76 -1665 -120 -36 -5 -82 -10 -103 -10 l-38
0 112 148 c340 446 567 712 806 943 214 207 272 245 418 273 135 26 540 57
930 69 225 8 1440 6 1940 -3z m317 -1642 c106 -55 172 -117 256 -241 116 -171
320 -541 336 -610 4 -15 2 -46 -4 -68 -15 -55 -48 -67 -208 -79 -196 -14
-1362 -20 -2337 -11 -958 8 -919 5 -974 64 -21 23 -23 33 -17 73 8 58 68 182
200 412 170 296 198 334 301 408 75 53 126 72 220 83 39 5 537 9 1108 10
l1039 1 80 -42z m-5381 -983 c345 -80 1022 -255 1332 -345 55 -16 206 -121
285 -198 76 -73 122 -152 122 -206 0 -44 -38 -91 -88 -107 -44 -14 -448 -8
-1269 20 l-532 18 -53 33 c-160 97 -188 162 -188 435 0 166 12 239 48 290 31
44 118 95 163 95 15 0 96 -16 180 -35z m8632 21 c110 -33 145 -87 160 -254 13
-134 -2 -335 -28 -398 -22 -52 -56 -88 -139 -142 l-68 -45 -537 -18 c-707 -24
-1198 -34 -1244 -25 -47 9 -104 57 -112 96 -17 76 105 232 265 339 76 51 104
62 260 108 469 139 1293 350 1371 352 14 1 46 -5 72 -13z m-6941 -1565 c201
-13 207 -18 378 -339 129 -242 232 -467 228 -500 -6 -50 -38 -56 -298 -60
-389 -6 -423 8 -574 241 -101 155 -293 480 -328 552 -43 91 -40 97 47 108 58
7 421 6 547 -2z m4393 -8 c49 -15 54 -49 20 -130 -56 -132 -294 -599 -335
-656 -60 -83 -74 -88 -285 -99 -254 -13 -2678 -4 -2729 10 -54 15 -85 39 -128
103 -46 67 -226 419 -303 592 -54 123 -56 129 -41 152 9 14 20 26 24 26 89 18
3721 19 3777 2z m1238 -2 c10 -7 17 -20 17 -28 0 -28 -269 -490 -383 -658 -62
-91 -122 -150 -180 -176 -51 -23 -60 -24 -327 -24 -322 0 -336 3 -334 72 0 30
26 93 103 249 113 232 221 432 258 481 13 18 45 45 71 60 60 35 131 41 493 39
209 -1 269 -4 282 -15z"/>
<path d="M4755 6115 c-132 -28 -235 -103 -235 -171 0 -40 10 -63 54 -117 l31
-39 -30 -21 c-150 -109 -170 -183 -74 -279 96 -96 207 -124 454 -115 171 6
223 18 302 73 56 39 113 114 113 150 0 35 -62 116 -118 153 l-51 35 35 43 c82
101 66 178 -53 240 -111 59 -289 79 -428 48z m289 -136 c57 -38 42 -74 -43
-104 -138 -48 -345 36 -246 101 39 26 83 33 172 30 67 -2 88 -7 117 -27z m20
-304 c75 -38 74 -70 -5 -115 -40 -22 -55 -25 -154 -25 -95 0 -116 3 -158 23
-74 37 -83 72 -28 105 46 27 99 36 206 34 77 -2 109 -7 139 -22z"/>
</g>
</svg>
